# xmcd CD database file
#
# Track frame offsets:
#	150
#	11642
#	23317
#	36470
#	50420
#	61410
#	74072
#	86202
#	99577
#	112520
#	125182
#	143165
#
# Disc length: 2082 seconds
#
# Revision: 0
# Processed by: cddbd v1.5.2PL0 Copyright (c) Steve Scherf et al.
# Submitted via: CDex 1.51
#
DISCID=a508200c
DTITLE=Charlie Palmieri and his Charanga Duboney - Pachanga at the Caravana Club
DYEAR=1962
DGENRE=Salsa
TTITLE0=01 - Bronx Pachanga
TTITLE1=02 - Ritmo Charanga
TTITLE2=03 - Son de Pachanga
TTITLE3=04 - El Baile Nuevo
TTITLE4=05 - Pon  Pon Pachanga
TTITLE5=06 - Palmieri y la Duboney
TTITLE6=07 - Pachanga Sabrosa
TTITLE7=08 - El Brinco Loco
TTITLE8=09 - Como Bailan La Pachanga
TTITLE9=10 - Charangona
TTITLE10=11 - La Vida Es Un Sueño
TTITLE11=12 - La Pachanga Se Baila Asi
EXTD=YEAR: 1962
EXTT0=
EXTT1=
EXTT2=
EXTT3=
EXTT4=
EXTT5=
EXTT6=
EXTT7=
EXTT8=
EXTT9=
EXTT10=
EXTT11=
PLAYORDER=
